<?xml version="1.0" encoding="iso-8859-1"?>
<!-- Generator: Adobe Illustrator 19.0.0, SVG Export Plug-In . SVG Version: 6.00 Build 0)  -->
<svg version="1.1" id="Capa_1" xmlns="http://www.w3.org/2000/svg" xmlns:xlink="http://www.w3.org/1999/xlink" x="0px" y="0px"
	 viewBox="0 0 512 512" style="enable-background:new 0 0 512 512;" xml:space="preserve">
<g>
	<g>
		<path d="M135.545,3.128c-4.165-4.166-10.919-4.167-15.085-0.002L3.126,120.459l15.083,15.083l99.125-99.125v48.917
			c0,17.673-14.327,32-32,32h-32v21.333h32c29.441-0.035,53.298-23.893,53.333-53.333V10.667
			C138.667,7.839,137.544,5.127,135.545,3.128z"/>
	</g>
</g>
<g>
	<g>
		<path d="M384.001,298.667V53.333C383.966,23.893,360.108,0.035,330.668,0H128.001c-2.829,0.001-5.541,1.125-7.541,3.125
			L3.126,120.459c-2,2-3.125,4.713-3.125,7.541v330.667C0.036,488.107,23.894,511.965,53.334,512h277.333
			c29.441-0.035,53.298-23.893,53.333-53.333V448h-21.333v10.667c0,17.673-14.327,32-32,32H53.334c-17.673,0-32-14.327-32-32
			V132.416L132.417,21.333h198.251c17.673,0,32,14.327,32,32v245.333H384.001z"/>
	</g>
</g>
<g>
	<g>
		<path d="M508.876,462.496L305.505,259.125c-4.165-4.164-10.917-4.164-15.083,0l-31.296,31.296c-4.164,4.165-4.164,10.917,0,15.083
			l203.371,203.371c2,2.001,4.713,3.125,7.541,3.125c2.829-0.001,5.541-1.125,7.541-3.125l31.296-31.296
			C513.04,473.413,513.04,466.661,508.876,462.496z M470.038,486.251L281.75,297.963l16.213-16.213l188.288,188.288L470.038,486.251
			z"/>
	</g>
</g>
<g>
	<g>
		<path d="M266.668,256c-5.891,0-10.667,4.776-10.667,10.667v32h21.333v-21.333h21.333V256H266.668z"/>
	</g>
</g>
<g>
	<g>
		<path d="M170.668,362.667h-21.333v-21.333c0-5.891-4.776-10.667-10.667-10.667H96.001c-5.891,0-10.667,4.776-10.667,10.667v21.333
			H64.001c-5.891,0-10.667,4.776-10.667,10.667V416c0,5.891,4.776,10.667,10.667,10.667h21.333V448
			c0,5.891,4.776,10.667,10.667,10.667h42.667c5.891,0,10.667-4.776,10.667-10.667v-21.333h21.333
			c5.891,0,10.667-4.776,10.667-10.667v-42.667C181.334,367.442,176.559,362.667,170.668,362.667z M160.001,405.333h-21.333
			c-5.891,0-10.667,4.776-10.667,10.667v21.333h-21.333V416c0-5.891-4.776-10.667-10.667-10.667H74.668V384h21.333
			c5.891,0,10.667-4.776,10.667-10.667V352h21.333v21.333c0,5.891,4.776,10.667,10.667,10.667h21.333V405.333z"/>
	</g>
</g>
<g>
	<g>
		<rect x="53.334" y="256" width="213.333" height="21.333"/>
	</g>
</g>
<g>
	<g>
		<rect x="53.334" y="202.667" width="277.333" height="21.333"/>
	</g>
</g>
<g>
	<g>
		<rect x="170.668" y="149.333" width="160" height="21.333"/>
	</g>
</g>
<g>
	<g>
		<rect x="213.334" y="96" width="117.333" height="21.333"/>
	</g>
</g>
<g>
	<g>
		<rect x="170.668" y="96" width="21.333" height="21.333"/>
	</g>
</g>
<g>
</g>
<g>
</g>
<g>
</g>
<g>
</g>
<g>
</g>
<g>
</g>
<g>
</g>
<g>
</g>
<g>
</g>
<g>
</g>
<g>
</g>
<g>
</g>
<g>
</g>
<g>
</g>
<g>
</g>
</svg>
