<?xml version="1.0" encoding="iso-8859-1"?>
<!-- Generator: Adobe Illustrator 19.0.0, SVG Export Plug-In . SVG Version: 6.00 Build 0)  -->
<svg version="1.1" id="Capa_1" xmlns="http://www.w3.org/2000/svg" xmlns:xlink="http://www.w3.org/1999/xlink" x="0px" y="0px"
	 viewBox="0 0 512 512" style="enable-background:new 0 0 512 512;" xml:space="preserve">
<g>
	<g>
		<g>
			<path d="M418.115,170.227c-0.006-0.123-0.01-0.247-0.022-0.37c-0.015-0.159-0.04-0.317-0.064-0.475
				c-0.017-0.113-0.031-0.226-0.053-0.338c-0.006-0.031-0.008-0.062-0.015-0.093c0-0.001,0-0.003-0.001-0.004
				c-0.025-0.121-0.062-0.24-0.092-0.36c-0.029-0.114-0.055-0.229-0.088-0.342c-0.013-0.043-0.022-0.088-0.036-0.132
				c-0.009-0.028-0.021-0.055-0.03-0.083c-0.027-0.082-0.06-0.161-0.089-0.242c-0.039-0.108-0.075-0.216-0.118-0.322
				c-0.022-0.053-0.041-0.108-0.063-0.16c-0.003-0.006-0.006-0.012-0.009-0.018c-0.037-0.086-0.081-0.167-0.121-0.251
				c-0.052-0.11-0.101-0.22-0.157-0.327c-0.03-0.058-0.06-0.116-0.091-0.173c-0.003-0.005-0.005-0.011-0.008-0.016
				c-0.022-0.04-0.049-0.076-0.072-0.116c-0.014-0.024-0.029-0.047-0.043-0.071c-0.068-0.116-0.135-0.232-0.209-0.344
				c-0.035-0.054-0.07-0.108-0.107-0.161c-0.049-0.071-0.102-0.137-0.152-0.206c-0.075-0.103-0.15-0.206-0.23-0.305
				c-0.038-0.047-0.076-0.095-0.116-0.141c-0.067-0.08-0.137-0.155-0.207-0.232c-0.074-0.081-0.146-0.163-0.223-0.242
				c-0.043-0.044-0.086-0.088-0.13-0.131c-0.086-0.085-0.176-0.164-0.266-0.244c-0.067-0.06-0.131-0.121-0.2-0.179
				c-0.052-0.044-0.104-0.087-0.157-0.129c-0.106-0.085-0.215-0.163-0.325-0.243c-0.056-0.041-0.108-0.084-0.166-0.124
				c-0.063-0.044-0.126-0.085-0.19-0.127c-0.097-0.063-0.196-0.12-0.295-0.179c-0.122-0.073-0.242-0.148-0.367-0.215l-76.657-42.59
				c0,0-0.001,0-0.001-0.001l-76.8-42.667c-0.033-0.018-0.068-0.032-0.101-0.05c-0.158-0.085-0.32-0.163-0.483-0.238
				c-0.104-0.048-0.207-0.096-0.311-0.14c-0.136-0.056-0.275-0.105-0.414-0.154c-0.133-0.047-0.265-0.095-0.4-0.135
				c-0.114-0.034-0.229-0.061-0.344-0.09c-0.157-0.04-0.313-0.08-0.471-0.111c-0.107-0.021-0.214-0.034-0.321-0.051
				c-0.163-0.025-0.326-0.051-0.49-0.067c-0.121-0.012-0.242-0.015-0.364-0.021c-0.149-0.008-0.297-0.018-0.445-0.017
				c-0.146,0-0.292,0.01-0.438,0.017c-0.124,0.006-0.247,0.01-0.37,0.021c-0.164,0.016-0.327,0.042-0.49,0.067
				c-0.106,0.016-0.213,0.03-0.319,0.05c-0.162,0.031-0.323,0.073-0.484,0.114c-0.109,0.028-0.219,0.053-0.327,0.085
				c-0.144,0.043-0.287,0.094-0.43,0.145c-0.126,0.045-0.252,0.089-0.376,0.14c-0.121,0.05-0.24,0.106-0.36,0.161
				c-0.143,0.066-0.286,0.134-0.426,0.209c-0.042,0.022-0.086,0.039-0.127,0.063l-76.8,42.667l-76.702,42.612
				c-0.016,0.009-0.032,0.018-0.048,0.027l-0.05,0.028c-0.057,0.031-0.107,0.069-0.163,0.102c-0.003,0.002-0.006,0.004-0.009,0.006
				c-0.124,0.073-0.247,0.144-0.367,0.223c-0.049,0.032-0.097,0.064-0.145,0.097c-0.074,0.051-0.143,0.105-0.215,0.158
				c-0.106,0.078-0.212,0.155-0.315,0.238c-0.041,0.033-0.081,0.066-0.122,0.099c-0.083,0.069-0.16,0.141-0.24,0.213
				c-0.086,0.078-0.172,0.155-0.255,0.237c-0.036,0.035-0.071,0.07-0.106,0.106c-0.087,0.088-0.169,0.18-0.252,0.272
				c-0.067,0.074-0.134,0.147-0.198,0.223c-0.034,0.041-0.068,0.082-0.102,0.123c-0.086,0.106-0.166,0.216-0.246,0.326
				c-0.05,0.068-0.101,0.133-0.149,0.203c-0.034,0.049-0.067,0.099-0.099,0.149c-0.077,0.118-0.148,0.24-0.219,0.361
				c-0.004,0.007-0.008,0.013-0.012,0.02c-0.031,0.054-0.068,0.102-0.098,0.157c-0.004,0.007-0.007,0.015-0.011,0.022
				c-0.03,0.055-0.058,0.111-0.087,0.167c-0.056,0.107-0.105,0.215-0.156,0.324c-0.033,0.071-0.07,0.139-0.102,0.211
				c-0.01,0.022-0.022,0.044-0.032,0.066c-0.022,0.052-0.041,0.107-0.063,0.16c-0.04,0.1-0.074,0.201-0.111,0.302
				c-0.028,0.077-0.059,0.152-0.084,0.23c-0.012,0.037-0.029,0.074-0.041,0.111c-0.014,0.045-0.024,0.092-0.037,0.138
				c-0.03,0.103-0.054,0.207-0.08,0.311c-0.032,0.127-0.071,0.253-0.098,0.38c-0.004,0.019-0.005,0.038-0.009,0.057
				c-0.003,0.017-0.005,0.033-0.008,0.05c-0.02,0.104-0.033,0.208-0.049,0.312c-0.022,0.143-0.049,0.285-0.063,0.427
				c-0.002,0.015-0.001,0.03-0.003,0.045c-0.001,0.008-0.001,0.016-0.001,0.024c-0.011,0.12-0.015,0.241-0.021,0.361
				c-0.007,0.141-0.018,0.281-0.018,0.422c0,0.008-0.001,0.016-0.001,0.024v0.056c0,0.018,0,0.037,0,0.055v85.11
				c0,0.019,0,0.038,0,0.058V256v85.221c0,0.019,0,0.038,0,0.058v0.055c0,0.061,0.008,0.12,0.009,0.181
				c0.005,0.21,0.012,0.42,0.032,0.628c0.012,0.129,0.034,0.255,0.052,0.383c0.02,0.143,0.038,0.286,0.065,0.427
				c0.031,0.159,0.071,0.313,0.11,0.469c0.028,0.109,0.052,0.219,0.084,0.327c0.048,0.162,0.105,0.32,0.162,0.478
				c0.037,0.102,0.071,0.204,0.111,0.304c0.06,0.148,0.128,0.292,0.195,0.436c0.051,0.109,0.101,0.218,0.156,0.324
				c0.065,0.125,0.137,0.245,0.208,0.366c0.071,0.122,0.142,0.243,0.22,0.362c0.065,0.099,0.136,0.195,0.206,0.291
				c0.094,0.13,0.187,0.261,0.289,0.386c0.067,0.082,0.138,0.16,0.208,0.24c0.112,0.128,0.224,0.256,0.344,0.378
				c0.077,0.078,0.159,0.151,0.239,0.226c0.119,0.112,0.236,0.224,0.362,0.329c0.108,0.091,0.222,0.173,0.334,0.258
				c0.105,0.08,0.207,0.162,0.317,0.237c0.17,0.117,0.348,0.224,0.527,0.329c0.054,0.032,0.103,0.068,0.158,0.099l0.049,0.027
				c0.017,0.009,0.033,0.019,0.05,0.028l76.701,42.612l0.051,0.028c0.016,0.009,0.031,0.018,0.047,0.026l76.702,42.612
				c0.006,0.004,0.013,0.006,0.02,0.009c0.299,0.166,0.611,0.312,0.931,0.441c0.064,0.026,0.128,0.046,0.192,0.07
				c0.233,0.088,0.471,0.167,0.713,0.234c0.038,0.011,0.076,0.024,0.114,0.035c0.07,0.018,0.139,0.032,0.209,0.048
				c0.231,0.055,0.466,0.098,0.704,0.133c0.008,0.001,0.016,0.003,0.024,0.005c0.047,0.007,0.092,0.02,0.138,0.026
				c0.04,0.005,0.081,0.008,0.121,0.012c0.307,0.035,0.618,0.056,0.934,0.058c0.012,0,0.024,0.002,0.036,0.002
				c0.001,0,0.002,0,0.004,0c0.002,0,0.003,0,0.005,0c0.002,0,0.003,0,0.005,0c0.001,0,0.002,0,0.004,0
				c0.012,0,0.024-0.002,0.036-0.002c0.316-0.002,0.627-0.023,0.934-0.058c0.04-0.005,0.081-0.007,0.121-0.012
				c0.047-0.006,0.093-0.02,0.14-0.026c0.008-0.001,0.015-0.003,0.023-0.004c0.238-0.035,0.473-0.079,0.704-0.133
				c0.07-0.017,0.139-0.03,0.209-0.048c0.039-0.01,0.076-0.024,0.115-0.035c0.243-0.068,0.48-0.146,0.713-0.234
				c0.064-0.024,0.129-0.045,0.192-0.07c0.32-0.129,0.631-0.275,0.931-0.441c0.006-0.004,0.013-0.006,0.02-0.009l76.702-42.612
				c0.016-0.009,0.031-0.018,0.047-0.026l0.051-0.028c0,0,0,0,0,0l76.659-42.59c0.295-0.157,0.578-0.331,0.851-0.521
				c0.06-0.041,0.114-0.087,0.172-0.129c0.162-0.118,0.322-0.238,0.475-0.367c0.096-0.081,0.185-0.167,0.277-0.252
				c0.108-0.099,0.216-0.197,0.319-0.302c0.103-0.105,0.199-0.216,0.296-0.326c0.084-0.095,0.169-0.189,0.249-0.288
				c0.093-0.115,0.179-0.235,0.265-0.355c0.076-0.105,0.153-0.209,0.225-0.318c0.075-0.114,0.143-0.232,0.212-0.349
				c0.072-0.123,0.145-0.245,0.212-0.371c0.057-0.109,0.108-0.221,0.16-0.333c0.066-0.14,0.132-0.279,0.19-0.423
				c0.044-0.109,0.081-0.22,0.121-0.331c0.053-0.148,0.106-0.296,0.151-0.447c0.037-0.124,0.065-0.249,0.096-0.374
				c0.034-0.139,0.071-0.278,0.098-0.419c0.032-0.163,0.053-0.328,0.075-0.492c0.014-0.106,0.033-0.211,0.043-0.318
				c0.023-0.234,0.032-0.469,0.036-0.705c0-0.039,0.006-0.076,0.006-0.115v-0.035c0-0.03,0-0.059,0-0.089V256v-0.035
				c0-0.03,0-0.059,0-0.089v-85.086c0-0.028,0-0.056,0-0.084v-0.039c0-0.005-0.001-0.01-0.001-0.015
				C418.132,170.51,418.122,170.368,418.115,170.227z M256,95.095L315.229,128L256,160.905L196.771,128L256,95.095z
				 M401.067,250.981l-59.733,33.183v-65.811l59.733-33.187V250.981z M110.933,185.169l59.733,33.185v65.81l-59.733-33.185V185.169z
				 M256,180.428l59.229,32.905L256,246.238l-59.229-32.905L256,180.428z M187.733,293.646v-65.81l59.733,33.185v65.81
				L187.733,293.646z M264.533,326.831v-65.81l59.733-33.185v65.81L264.533,326.831z M332.8,203.572l-59.229-32.905l59.229-32.905
				l59.233,32.905L332.8,203.572z M179.2,137.762l59.229,32.905L179.2,203.572l-59.229-32.905L179.2,137.762z M110.933,270.502
				l59.733,33.185v65.81l-59.733-33.185V270.502z M187.733,313.169l59.733,33.185v65.81l-59.733-33.185V313.169z M264.533,346.354
				l59.733-33.185v65.81l-59.733,33.185V346.354z M341.333,303.687l59.733-33.187v65.814l-59.733,33.183V303.687z"/>
			<path d="M460.8,179.2c18.825,0,34.133-15.313,34.133-34.133s-15.308-34.133-34.133-34.133c-18.825,0-34.133,15.312-34.133,34.133
				S441.975,179.2,460.8,179.2z M460.8,128c9.408,0,17.067,7.654,17.067,17.067c0,9.413-7.658,17.067-17.067,17.067
				s-17.067-7.654-17.067-17.067C443.733,135.654,451.392,128,460.8,128z"/>
			<path d="M460.8,332.8c-18.825,0-34.133,15.313-34.133,34.133s15.308,34.133,34.133,34.133c18.825,0,34.133-15.313,34.133-34.133
				S479.625,332.8,460.8,332.8z M460.8,384c-9.408,0-17.067-7.654-17.067-17.067s7.658-17.067,17.067-17.067
				s17.067,7.654,17.067,17.067S470.208,384,460.8,384z"/>
			<path d="M256,443.733c-18.821,0-34.133,15.313-34.133,34.133S237.179,512,256,512s34.133-15.312,34.133-34.133
				S274.821,443.733,256,443.733z M256,494.933c-9.413,0-17.067-7.654-17.067-17.067S246.587,460.8,256,460.8
				c9.413,0,17.067,7.654,17.067,17.067S265.413,494.933,256,494.933z"/>
			<path d="M51.2,332.8c-18.821,0-34.133,15.313-34.133,34.133s15.312,34.133,34.133,34.133s34.133-15.313,34.133-34.133
				S70.021,332.8,51.2,332.8z M51.2,384c-9.413,0-17.067-7.654-17.067-17.067s7.654-17.067,17.067-17.067
				c9.412,0,17.067,7.654,17.067,17.067S60.613,384,51.2,384z"/>
			<path d="M51.2,110.933c-18.821,0-34.133,15.312-34.133,34.133S32.379,179.2,51.2,179.2s34.133-15.313,34.133-34.133
				S70.021,110.933,51.2,110.933z M51.2,162.133c-9.413,0-17.067-7.654-17.067-17.067c0-9.412,7.654-17.067,17.067-17.067
				c9.412,0,17.067,7.654,17.067,17.067C68.267,154.479,60.613,162.133,51.2,162.133z"/>
			<path d="M256,68.267c18.821,0,34.133-15.312,34.133-34.133S274.821,0,256,0s-34.133,15.313-34.133,34.133
				S237.179,68.267,256,68.267z M256,17.067c9.413,0,17.067,7.654,17.067,17.067c0,9.412-7.654,17.067-17.067,17.067
				c-9.413,0-17.067-7.654-17.067-17.067C238.933,24.721,246.587,17.067,256,17.067z"/>
		</g>
	</g>
</g>
<g>
</g>
<g>
</g>
<g>
</g>
<g>
</g>
<g>
</g>
<g>
</g>
<g>
</g>
<g>
</g>
<g>
</g>
<g>
</g>
<g>
</g>
<g>
</g>
<g>
</g>
<g>
</g>
<g>
</g>
</svg>
