<svg id="Layer_1" enable-background="new 0 0 512 512" height="512" viewBox="0 0 512 512" width="512" xmlns="http://www.w3.org/2000/svg"><g><g><path d="m482 376.001h-30.001v-99.999h20c11.028 0 20-8.972 20-20v-80.001c0-11.028-8.972-20-20-20h-21.006c-3.987-19.563-19.431-35.007-38.994-38.994v-71.008c0-11.028-8.972-20-20-20h-20.001c-11.028 0-20 8.972-20 20v70.002h-30.001v-30c0-5.523-4.477-10-10-10s-10 4.477-10 10v30h-181.997v-20.001c0-11.028-8.972-20-20-20h-20c-11.028 0-20 8.972-20 20v21.007c-22.795 4.646-40 24.847-40 48.994v99.997c0 16.542 13.458 30 30 30h10v20c0 11.028 8.972 20 20 20v40.003h-50c-16.542 0-30 13.458-30 30v60c0 11.028 8.972 20 20 20h472c11.028 0 20-8.972 20-20v-60c0-16.542-13.458-30-30-30zm-10.001-119.999h-20v-80.001h20zm-100.001-210.003h20v70.002h-20zm-271.998 50.001v20h-20v-20zm-10 110.003c-8.271 0-15-6.729-15-15s6.729-15 15-15 15 6.729 15 15-6.729 15-15 15zm-50 59.995v-99.997c0-16.542 13.458-30 30-30h10v21.464c-14.441 4.314-25 17.712-25 33.537s10.56 29.223 25 33.537v16.461c0 5.523 4.477 10 10 10s10-4.477 10-10v-16.46c14.44-4.314 25-17.712 25-33.537s-10.56-29.223-25-33.537v-21.464h301.999c16.542 0 30 13.458 30 30v210h-151.995v-90.004c0-16.542-13.458-30-30-30h-100.004c-5.523 0-10 4.477-10 10 0 5.514-4.486 10-10 10h-80c-5.514 0-10-4.486-10-10zm60 30v20h-20v-20zm0 40c11.028 0 20-8.972 20-20v-20h10c13.038 0 24.159-8.359 28.286-20h91.718c5.514 0 10 4.486 10 10v90.004h-160.004zm-80 130.003v-29.624h24.997c5.523 0 10-4.477 10-10s-4.477-10-10-10h-24.997v-10.376c0-5.514 4.486-10 10-10h452c5.514 0 10 4.486 10 10v10.376h-357.003c-5.523 0-10 4.477-10 10s4.477 10 10 10h357.003v29.624z"/><path d="m356.001 246c-30.327 0-55 24.673-55 55s24.673 55 55 55 55-24.673 55-55-24.672-55-55-55zm0 90c-19.299 0-35-15.701-35-35s15.701-35 35-35 35 15.701 35 35-15.701 35-35 35z"/><path d="m270.004 196.002h32.718c4.128 11.639 15.243 20 28.279 20h50c16.542 0 30-13.458 30-30s-13.458-30-30-30h-50c-13.036 0-24.151 8.361-28.279 20h-32.718c-5.523 0-10 4.477-10 10s4.477 10 10 10zm60.997-20h50c5.514 0 10 4.486 10 10s-4.486 10-10 10h-50c-5.514 0-10-4.486-10-10s4.486-10 10-10z"/><path d="m355.998 291c-5.523 0-10 4.477-10 10s4.477 10 10 10h.007c5.523 0 9.997-4.477 9.997-10s-4.481-10-10.004-10z"/><path d="m90 416.377h-.007c-5.523 0-9.996 4.477-9.996 10s4.48 10 10.003 10 10-4.477 10-10-4.477-10-10-10z"/></g></g></svg>